<svg id="Layer_1" data-name="Layer 1" xmlns="http://www.w3.org/2000/svg" width="284.49" height="335.79" viewBox="0 0 284.49 335.79"><path d="M111.29,55.45a53.42,53.42,0,0,1,13.25.25,66.15,66.15,0,0,1,13,3.1,58.15,58.15,0,0,1,12.43,6A45.78,45.78,0,0,1,155.74,69c.92.78,1.8,1.63,2.65,2.49a32.29,32.29,0,0,1,2.41,2.7,66.17,66.17,0,0,1,12.46,24.72,104.19,104.19,0,0,1,2.81,13.19,103.48,103.48,0,0,1,1.11,13.39,69.91,69.91,0,0,1-1,13.63,40.12,40.12,0,0,1-1.86,7l-.74,1.78c-.3.6-.61,1.21-.92,1.79a30.07,30.07,0,0,1-2,3,92.7,92.7,0,0,1-8.79,9.89,106.08,106.08,0,0,0-8.16,9.06,34.81,34.81,0,0,0-5.69,10c-.15.45-.31.9-.43,1.36s-.26.92-.33,1.32A13.38,13.38,0,0,0,147,187a24.1,24.1,0,0,0,.75,5.67,36.92,36.92,0,0,0,4.83,11,26.12,26.12,0,0,0,8.4,8.62l-.61,1.26a28.39,28.39,0,0,1-10.2-8.11A40.67,40.67,0,0,1,143.54,194a26.67,26.67,0,0,1-1.63-6.7,20.34,20.34,0,0,1,0-3.66c.06-.65.16-1.22.25-1.79s.22-1.13.34-1.7a40.18,40.18,0,0,1,5.39-12.53,113.58,113.58,0,0,1,7.75-10.53,98,98,0,0,0,7.14-9.67c.49-.79.9-1.58,1.28-2.35l.46-1.06.4-1.17a31.43,31.43,0,0,0,1.05-5.28A59.43,59.43,0,0,0,166.1,126c-1.25-15.66-7.41-31.26-16.5-42.48-1.15-1.4-2.33-2.71-3.6-4s-2.59-2.55-4-3.77-2.89-2.41-4.45-3.53-3.15-2.26-4.8-3.34a227.63,227.63,0,0,0-21.64-12.06Z" fill="#1b3659"/><rect x="3.49" y="2.65" width="281" height="280.67" fill="none"/><path d="M165.37,108.79a64.34,64.34,0,0,0-21.6-34.58c-8-6.76-29.88-16.74-31.8-16.74a108.8,108.8,0,0,1,34.51,25.27c1.4,1.53,10.07,13.42,12.49,20.87,9.27,28.52,0,47.79.22,48.85C165.55,144.37,171.59,134.18,165.37,108.79Z" fill="#dedee1"/><path d="M169.41,31.8l5.68.26c.38.11.64-.15.92-.32,4.68-1.49,7-5.2,9-9.42.84,4.12-.47,7.8-2.16,11.4C178.5,43,171.5,47.94,160.41,46.19c3.8,6.21,8.54,10.39,15,12.44-.27,1.53-1.91.92-2.54,1.64-.87.53-.83,1.44-1.28,2.08a26.94,26.94,0,0,0-3.23-1.14,9.15,9.15,0,0,0-2.28.07.73.73,0,0,1-.78,0,58.05,58.05,0,0,0-12-11.79c-4.86-3.72-10.48-4.92-16.51-4.45a7.44,7.44,0,0,0-1.63.3,5,5,0,0,1-1.33.15c-3.05-.73-3.36-1.49-2.2-5.28a2.66,2.66,0,0,1,2.48-1.15,12.39,12.39,0,0,0,4.06-.39c3.78-.41,7.54-.51,11.18.91a4.88,4.88,0,0,1,.82.26,8.09,8.09,0,0,1,1.09.57,5.67,5.67,0,0,0,1.47.75c-1.28-3.62-7-5.88-13.93-5.49-1.52,0-3.05,1.06-4.55-.05-.66-1.92.87-1.82,1.94-2a21.14,21.14,0,0,0,2.95-.41c1.36-.47,2.75-.85,4.27-1.4-2.66.15-5.14.05-7.6.4-.8.11-1.9.27-2.07-1.08,4.42-.2,8.87-.84,13.24-.49,4.86.38,8.42,3.52,11.51,7.18,4.58,5.42,12.21,4.9,16.23-1.06L172.17,36c-.66-.15-.65-.1-1.11-.22l-.41-.15-.37-.11a5.1,5.1,0,0,1-.87-.35L169,35l-.62-.35a4,4,0,0,1-1.17-.82l-1.12-1.08c-.29-.78-1.32-2,.18-2" fill="#1e3a5c"/><path d="M231.92,144.17c-2,8.55-6.64,15.41-13.23,21.21-4.77,4.21-9.09,8.94-13.48,13.56h0a4.32,4.32,0,0,0,3.66,7.12H209a16.14,16.14,0,0,0,12.45-7.44c1.48-2.29,6.28-9.37,6.71-9.26.16,1.2-2.36,13.43-5.45,17.56-2.09,2.78-4.65,5.21-7,7.8-.83-.67,0-1.5-.23-2.39-1.6-.37-3.12-1.64-4.91-.32-6.17,2-14.62-2.87-15.21-8.71,1.45-6.17,5-11.41,7.78-17a3.39,3.39,0,0,1,1.13-1.16c2.22-1,2.45-4,4.75-5,1.49,0,2.58,1.57,4.15.9a8.21,8.21,0,0,0,5-3.43,3.88,3.88,0,0,1,.42-.58,5.72,5.72,0,0,1,.45-.53l.24-.26c.15-.17.31-.34.47-.5a7.67,7.67,0,0,0,1-1.39c1.67-2.46,3.6-4.74,4.89-7.45,1.26-1.41.94-3.69,2.67-4.85C230,141.93,231.5,142,231.92,144.17Z" fill="#1c395d"/><path d="M196.67,68.32a19.12,19.12,0,0,0,8.07-11.75c2.42,2.87,1.88,12.13-.61,17.07-2.8,5.56-7.88,8.4-13.36,11,6,5.09,13.34,5.36,20.41,6.43.75.37,1.62,0,2.36.38h2c1.15,1.33-.1,3,.54,4.35-3.49-.21-7-.46-10.46-.61-.46,0-.93.39-1.4.6a16.06,16.06,0,0,1-2.82,3c-3,0-4.91-2.21-7.36-3.32-.21-.1-.42-.22-.62-.34-.4-.22-.8-.43-1.22-.63a2.87,2.87,0,0,0-.8-.21.36.36,0,0,0-.15.39c.06.16.1.31.17.46s.24.49.35.74.18.36.26.55c.2.39.48.73.7,1.11.29.61,16.06,17.19,15.82,17.81-5.54,6-16.72,4-20-15.57-.12-.72-1-1-1.75-1.22a2.53,2.53,0,0,1-.59-.49,4.25,4.25,0,0,1-.5-1c-.09-.21-.17-.43-.25-.65L185,95.26q-.12-.3-.21-.6a3,3,0,0,0-.53-1.1,3.54,3.54,0,0,1-.35-.51,3.6,3.6,0,0,1-.31-.54,5.6,5.6,0,0,1-.27-.55c-.14-.27-.27-.55-.41-.82l-.27-.53a3.33,3.33,0,0,0-.49-.73c-.14-.14-.28-.28-.41-.43a3.16,3.16,0,0,1-.37-.45,3.76,3.76,0,0,1-.31-.5l-.31-.5-.18-.23c-.15-.15-.28-.3-.42-.45l-.22-.24a3.5,3.5,0,0,1-.4-.55,3.78,3.78,0,0,1-.33-.63c-1.46-3-4-5.07-6.44-7.23-.58-.53-1.49-.75-1.28-1.82,1.35-1.66,3.18-1.54,5-1.38a5.81,5.81,0,0,1,.78.24,4.36,4.36,0,0,0,3,.74c2.88.26,5.65,1.41,8.63,1a16,16,0,0,0,9.66-4.61c.12-.25.67-.26.42-.76a.53.53,0,0,1-.25.55,2.19,2.19,0,0,1-2.46.3C195,71.25,196.87,69.89,196.67,68.32Z" fill="#1e3a59"/><path d="M79.34,41.51a.32.32,0,0,1,.13.39c.22.4.13.93.53,1.25h0c.28.33.18.85.53,1.14l.07.2a1.14,1.14,0,0,0,.43.89l.66,1.4a1.26,1.26,0,0,0,.44.8l.13.1v.16a1.08,1.08,0,0,0,.49.84h0c.31.31.21.83.58,1.1L94.16,62.63c-3.91,1-6.73-1.06-9.54-3.77-.22,1.26-.36,2.12-.5,3-1.1,1-2.28.25-3.43.15-3.79.62-5.51,2.26-6.12,5.85a2.52,2.52,0,0,1-.5,1.23,8.39,8.39,0,0,1-4.12.43A3.84,3.84,0,0,1,68.64,69a2.52,2.52,0,0,1-.49-.43c-.2-.22-.39-.46-.59-.69a5.67,5.67,0,0,1-.58-.62c-.18-.2-.37-.39-.56-.58a4.23,4.23,0,0,1-.56-.56c-.18-.19-.37-.38-.56-.56a3.84,3.84,0,0,1-.57-.57l-.61-.59a3.69,3.69,0,0,1-.61-.7,2.82,2.82,0,0,1-.32-.59,2.32,2.32,0,0,1-.16-.68,1.79,1.79,0,0,1,.31-1c1-1,2.1,0,3-.21,1.55-.62.93-2.72,2.5-3.18,1.1.69,1.85-.18,2.73-.58,1.37-.64,2.59-1.83,4.29-1.29.12.15.27.31.21-.13.25-.62,1-.79,1.21-1.63a30.29,30.29,0,0,1-2.2-6.13c-.16-.68-.33-1.48-1.39-1.18a5.91,5.91,0,0,0-4.86,4.44c-.24.75-.38,1.59-1.2,2-.75.23-1.68.28-2-.39-.91-1.88-2.65-3.26-3.17-5.34-.45-1.85.19-2.51,2.14-2.34l.58.49a1.35,1.35,0,0,0,.62.56h0a.87.87,0,0,0,.63.56V47a.92.92,0,0,0,.56.64h0c.31.5.67.45,1,.07l.6-1.1a3.23,3.23,0,0,0,.41-.78l3.94-5.4c.14-.23.08-.39-.17-.48h0c0-.28-.27-.43-.41-.64l-.68-1.51c-.5-2.92-2-5.7-1.21-8.81.06-.22-.25-.45-.45-.63h0c-.41-2.29-.28-2.48,2.11-3.22.9.14,1.21,1,1.82,1.48h0a.6.6,0,0,0,.48.3C80.79,26,85.88,28,89.09,33.74a14.49,14.49,0,0,0,7.4,6.38h.27l.11.25.69.46C97.18,43.12,96,44,93.87,43.28A7.56,7.56,0,0,0,89.36,43c-1.91.48-2.9-.76-3.24-2.49a14.39,14.39,0,0,0-1.84-5.07h0c-.25-.35-.12-.92-.65-1.1l.08.07c0-.35-.3-.51-.58-.66l-.48-.47a.92.92,0,0,0-.75-.59h-.19l-.13-.15c-.21-.14-.36-.37-.64-.42H81c-1.63-1.09-3.32-1.71-5.35-.6.15,1.35.1,2.68,1,3.8l.06.2c.11.5.06,1.06.56,1.41v-.06c.21.38.13.89.52,1.2v.17a1,1,0,0,0,.46.92l.11.09v.14c.15.48,0,1.07.63,1.36v.07C78.93,41.14,79.21,41.28,79.34,41.51Z" fill="#1c395d"/><path d="M104.05,138.87c-.54.67-1.4,1.28-1.56,2C99.37,155,92.84,167.64,85.72,180,80.2,189.58,74,198.76,68.82,208.5c-3.75,7.06-6.33,14.74-9.44,22.14a3,3,0,0,1-.76,1.55c-1-7.62-.17-14.63,2.91-21a192.57,192.57,0,0,1,12.2-22c9.63-14.73,17.78-30.12,23-47,1.51-.39,1.44,1.69,2.92,1.73.66-1.34.59-3,1.45-4.4S102.66,137.85,104.05,138.87Z" fill="#1b3659"/><path d="M69.08,58.07l-1.91,4-3.68-.22a1.17,1.17,0,0,1-1.17.07,2.88,2.88,0,0,0-.49-.11c-.28.14-.27.41-.29.68-.06,1.41.26,2.85-.52,4.15-.87.64-1.13-.12-1.36-.67a15,15,0,0,1-.81-3.75c-.71,1.64-.24,4.1-3.05,4.16a1.43,1.43,0,0,1-.32-1.52C57,60,56.2,59.07,52.2,54A15.53,15.53,0,0,0,51.59,58c-.11.85.19,2.1-1.34,2.12-1.33-2-.41-4.2-.79-6.23-.41.61-.39,1.83-1.73,1.51-.63-.42-.61-1.06-.63-1.71-.17-3.63-1-5.18-4.17-7.8-.3,2.7.65,5.78-2.56,7.11,1.7,2.1,4.38,2,6.26,3.49.13,1.62-1,1.42-2,1.4-1.16,0-2.31-.46-3.55-.16-.49,2,.26,3.73.57,5.49.14.8.7,1.8-.79,2C38.9,62,37,58.73,35,55.58a22.36,22.36,0,0,0-2.76-2.91c-1.84-2.21-2.24-5.3-4.45-7.28h0a1.79,1.79,0,0,0-.56-.6h0C24.7,40.6,25,39.17,28.91,36.44c.75-1.67-.21-3.65.84-5.28.68-.69,1.43-.76,2.7-.14a13.76,13.76,0,0,1,0,10.4c-.68.74,0,1,.47,1.41a9.72,9.72,0,0,1,2.23,2.25c.13.17.25.36.37.54l.18.24a2.82,2.82,0,0,0,.64.55,2.58,2.58,0,0,0,.49.17,1.23,1.23,0,0,0,.49-.1,2,2,0,0,0,.38-.39c.09-.21.17-.39.25-.6s0-.23.07-.35a11.65,11.65,0,0,0,.31-4.28c-.25-2.22.81-2.86,3.17-2.15h0c.45,1.12,1.59.67,2.36,1l9.38,8.38c.35-4,.67-7.82,1-11.61l1.1-.31,9.21,9.09c-2.33.11-1.84,1.57-1.19,2.8.82,1.56,1.88,3,3,4.75l1.47.13c2.47.69,1.71,2.64,1.68,4.3A1.84,1.84,0,0,1,69.08,58.07Z" fill="#233a58"/><path d="M31.67,42c1.7-3.51.8-7.06.36-10.61a4.31,4.31,0,0,0-1-.19,4.32,4.32,0,0,0-1,.32v5.6l-.62-.34-3.74,4.36.54.41,1,3.3c-2.48-2.46-5.4-4.55-6.34-8.23A6.7,6.7,0,0,0,19.45,34C13.91,27.78,10.58,20.1,5.87,13.33,4.49,11.33,3.68,9,2.43,6.39,1.21,5.79-.73,4.9.29,2.62.79,1.5,2.17.1,3.24,0,6.17-.18,6.81,2.26,7,3.54,13,8.62,17.28,14,22.4,18.73c1.83,2,3.65,4,5.51,5.9a7.19,7.19,0,0,0,1.54,1.07,8.86,8.86,0,0,1,1.9,1.06c3.35,3.62,6.64,7.29,9.92,11,.21.24.19.68.28,1l-2,.3L38.2,46.45c-1.06-1-.64-2.36-.82-3.57-.25-1.8-.62-3.53-2.55-4.22C33.33,39.48,34.71,42.82,31.67,42Z" fill="#263753"/><path d="M40.85,65.19c-.23-1.67-.48-3.34-.68-5C40,59,40,57.9,39.85,56.4c1.95.31,3.51.64,5.08.76.49,0,1-.54,1.52-.84,0-.1.08-.2.11-.3a2.48,2.48,0,0,1,.66-.71l.3-.13,1.83-3.59.78-.09.24,8.71c0,.1-.09.19-.13.29a7.94,7.94,0,0,1-.82,1,3.5,3.5,0,0,1-.55.4,11.91,11.91,0,0,0-1.43.84.86.86,0,0,0-.18.49,1.3,1.3,0,0,0,.11.48,1.48,1.48,0,0,0,.13.21,3.06,3.06,0,0,0,.36.36l.2.17c.15.1.29.21.43.32a3.91,3.91,0,0,1,.57.58l.34.42s.19.2.19.19a6.36,6.36,0,0,0,.69.46,4.94,4.94,0,0,1,.49.3l.53.28c.1,0,.19.09.29.12a2.94,2.94,0,0,1,1.93,1.22A5,5,0,0,1,54.79,72c.46.81,1.33.71,1.89,1.17.7,1.33-.69,1.21-1.17,1.71a.83.83,0,0,0-.28.39v.23a1.76,1.76,0,0,0,.27.4l.18.17.42.3.24.12c.27.09.54.16.81.23a2.55,2.55,0,0,1,1.06.54c.23.19.45.38.7.55l.53.29c.29.13.57.24.87.35s.44.11.66.18a15.3,15.3,0,0,0,2.53-.1c1,.64,1.84,1.82,3.3,1.56a4.62,4.62,0,0,0,2.84-.57c.85-.31,1.7-.7,2.44.24.65,1.55,1.24,3.11.22,4.75L64,87.58c-1.83-.2-3.7.32-5.76-.59a4,4,0,0,0-4.68-1.49,2.35,2.35,0,0,1-.54-.11c-.59-.31-1.09.14-1.64.22L47,85.73c-1.59-1.11-1.31-2.42-.38-3.77A10.82,10.82,0,0,0,48,80,2.65,2.65,0,0,1,49,79a2.77,2.77,0,0,0,.36-.4,1.46,1.46,0,0,0,0-.51,4,4,0,0,0-.38-.74c-.21-.25-.43-.48-.64-.73-.54-.61-.81-1.44-1.73-2-2.23-.14-4.42,1.15-6.81,1a4.39,4.39,0,0,1-.82-.14c-2.12-.47-4.41-.18-6.34-1.5-.9-1.76-.56-3.81-1.41-5.55V67.32c1.07-1,2.15-.67,3.22,0L36.6,69a2.5,2.5,0,0,0,1.65.51h5.61Z" fill="#1e3a5c"/><path d="M35.77,168.29H37.9c.61-.32,1.47.12,1.94-.62l-.08.05c.31,0,.45-.25.67-.39a.21.21,0,0,1,.27-.15h0a1.16,1.16,0,0,0,.8-.49l.9-.6a1,1,0,0,0,.72-.58l.51-.48a2.43,2.43,0,0,1,2.72-.12c.78.75.55,1.57.13,2.39h0a.75.75,0,0,0,0,1.4c6.55.75,8.8-3.67,9.56-9.94a10.73,10.73,0,0,1,.85-2.38,3.59,3.59,0,0,0,3.2,1.91,1.9,1.9,0,0,1,1.81.86c-.56,1.72-1.28,3.4-1.67,5.16-.83,3.82-3.37,6.22-6.41,8.28a9.71,9.71,0,0,0-7.29-2.34c-4.38.25-8.88-.27-12.83,2.35a2.8,2.8,0,0,1-2.12.2c-2.65-2.32-5.34-4.59-7.93-7a4.25,4.25,0,0,1-1.14-2.15c-1-4.46-2.19-8.91-2.92-13.43-1.17-7.18,2.47-12.6,7-17.58a1,1,0,0,0,.56-.67l-.06.05c.74-.29.84-1.05,1.19-1.62h0c.4-.36,1-.61.87-1.29v-.07a5,5,0,0,1,4.24.35c.43,1.87-1.2,2.89-1.79,4.33-1.42,2.06-2.82,4.13-4.27,6.17-3.82,5.33-4.19,10.78-.87,16.53.59,1,.5,2.43.72,3.66a1.85,1.85,0,0,0,0,2.49c1.75,1.89,3.21,4.14,5.78,5.12a.21.21,0,0,1,.29.05l0,.06C34.06,168.33,35,167.88,35.77,168.29Z" fill="#1b3659"/><path d="M84.28,35.52c.76,1.5,1.48,3,2.27,4.51.53,1,1.14,1.92,1.72,2.89l3.31-1.51L95,43.28l2.58-2.38,6.94,4.54,12.79-8.37c1.07,2.34-1.11,4.16-1,6.34-.51,1.62-2.11,2.15-3.21,3.18a8.49,8.49,0,0,0-2.39,2.74c1.66,1.45,3.13,3,5.62,2.53a6.36,6.36,0,0,0,3.6-1.69c1.08-.81,2.33-1.67,3.31.21a2.3,2.3,0,0,1,0,.74,2.07,2.07,0,0,1-.29.64l-.21.27a5.11,5.11,0,0,1-.45.48l-.23.21a4.11,4.11,0,0,1-.45.38c-.13.11-.29.21-.43.31a.36.36,0,0,0-.12.46c0,.16.07.24.11.25.33.68,1.08,1.22.71,2.13a3.5,3.5,0,0,1-2.93,1c-4.44-2.38-5.36-2.44-7.1-.43a9.52,9.52,0,0,1-7.08-3.89c-1.79-2.36-4.4-4.11-6.92-5.76,1.16,3.13,2.32,6.26,3.69,9.92-6.29-1.68-10.83-4.86-13.36-10.23C86.43,43.28,85.53,39.32,84.28,35.52Z" fill="#203957"/><path d="M113.53,95c5.47,19.81-8.4,41.32-30.81,40.21l-2.5-3.37.39-.67c5.81,1.31,10.83-.74,15.56-3.55,7.52-4.49,12-11.23,14-19.73C111.19,103.61,112.41,99.34,113.53,95Z" fill="#dedee1"/><path d="M149.77,67.93c.07-.94-26.61-13.3-26.53-14.26,1.18-.41,15.7-.07,16.68-.41.85-1,24.52,13,25.34,11.92.36-1.29-1-2.73.39-3.9h.47c.81,1,1.62,1.94,2.41,2.92a14.15,14.15,0,0,0,8.85,5.45c6.54,1.08,13,1.41,19.29-1.33l.86.36c-.44,1.57-.8,2.9-1.17,4.23,0,.67-.46.76-1,.83a1.64,1.64,0,0,0-1.9.93c-4.44,1.94-9,1.13-13.6.73-1-.09-1.93-.49-3-.68-.39.52.57.86.2,1.35l-5.52,1.13a1.68,1.68,0,0,1-1,.56,3,3,0,0,1-1.19-.13c-3.36-2.27-6.73-4.55-10-7-.18-.19-8.84-2.76-8.95-3S149.79,68.06,149.77,67.93Z" fill="#1a3e60"/><path d="M61.92,159.12l-4.78-.23-.23-2.54.52-.15a8.17,8.17,0,0,0,4.4-3.28l20.65-14.76,13.42-1.58c2.31,1.27,2.13,3.1-.51,5.1l-11.3,1.84L64.6,157.37c-.9.58-2,.81-2.69,1.75Z" fill="#1e3a5c"/><path d="M86.44,90.53c.7,3.38-.73,5.23-2.77,6.84-.76.59-1.8,1.33-1.92,2.12v.24c-6.4,8.11-12,3.28-13.17,2.06-.89-.9-1.73-1.86-1.22-3a10.61,10.61,0,0,1,4.09-5,10.82,10.82,0,0,1,5.88-1C80.66,93.34,84,94.5,86.44,90.53Z" fill="#203b61"/><path d="M31.65,133.74a14.48,14.48,0,0,1,.53-2.06,14.07,14.07,0,0,1,1-1.77l-3.95-.85q10.31-16.31,20.62-32.62c1-.2,1.16,1,2.07,1.06.93.38,2.08-1.1,3,.23-2.4,4.27-4.63,8.65-7.25,12.78-4.54,7.13-9.31,14.11-14,21.12A17.54,17.54,0,0,1,31.65,133.74Z" fill="#152d52"/><path d="M108.48,129.3c4.49-5.5,8.16-11.41,9-18.66a39.47,39.47,0,0,0-1.19-16.74,2.45,2.45,0,0,1,.35-1.88c4.17,6.21,6.47,13,5.51,20.5A35.4,35.4,0,0,1,113.08,132C111.54,131.07,108.92,132.07,108.48,129.3Z" fill="#1b3659"/><path d="M210.6,191.33l1.34-.79,5,1.22-1.33,3h0a1.68,1.68,0,0,0-.63.52h0c-.26.33-.92.15-1,.75L214,196a.69.69,0,0,0-.69.52l.06,0a1.3,1.3,0,0,0-.64.51h0c-.29.31-.92.14-1,.73l.07-.08c-.36,0-.52.23-.71.46h0c-.33.29-.87.19-1.09.64-2.38,1.06-4.69,2.3-7.14,3.15-4.68,1.61-9.43,3-14.15,4.48a6.63,6.63,0,0,1-2.41.4,2.08,2.08,0,0,1-1.49-2.52,2.2,2.2,0,0,1,.33-.69c1.11-1,3.11-.65,3.67-2.43.75-1.22,2.08-1.38,3.26-1.8a166.31,166.31,0,0,0,16.76-6.64C209.58,192.29,210.31,192.11,210.6,191.33Z" fill="#1a3e60"/><path d="M115.64,43.69l1.65-6.62L131,31.71a.68.68,0,0,0,1-.05.62.62,0,0,0,.09-.12l1.69-.4c.93.07,1.87.18,2.81.19a53.6,53.6,0,0,1,9.55.62c-3,.81-6.11,1.59-9.14,2.44a27.14,27.14,0,0,0-2.68,1.06c.11,1.36-1.07,1.24-1.81,1.47a36.78,36.78,0,0,0-5,1.8,61.84,61.84,0,0,0-9.1,4.27C117.54,43.45,116.75,44.22,115.64,43.69Z" fill="#203b61"/><path d="M189.18,201.28l1.45.59-5.26,2.21.5,2,2.94.2c-7.62,3.17-15.31,4.65-23.22,1a7.84,7.84,0,0,1-.81-1.4,2.1,2.1,0,0,1-.08-.93,3.58,3.58,0,0,1,3.24-2.67c2,.11,3.94.48,5.93.44,2.89-.14,5.82.2,8.61-.84C184.72,201.75,186.89,200.8,189.18,201.28Z" fill="#203b61"/><path d="M201.25,98.71l3-2.91a46.2,46.2,0,0,1,14.63,11.37c3.3,3.92,6.25,8.15,9.35,12.24-.47,2-2,1.26-3.28,1.31-.63-.17-1.21-.41-1.34-1.09-.1-1,.92-1.4,1-2.41-1-1.24-1.63-3.08-3.49-2.48a66.52,66.52,0,0,0-9.79-8c-.41-.27-.77-.62-1.18-.9-1.48-.88-2.8-2-4.22-3C204.48,101.31,202,101,201.25,98.71Z" fill="#263753"/><path d="M72.32,84.45l-.7-5.13V79a3.84,3.84,0,0,1,.44-1.43,29.31,29.31,0,0,0,7.58-14.93,1.8,1.8,0,0,1,.91-1.31l3.58.55C83.92,71.32,80.66,79.21,72.32,84.45Z" fill="#1b3659"/><path d="M224.33,120l3.88-.62,1.71,3.53a1,1,0,0,0,.44.93,28,28,0,0,1,1.56,20.3l-3.75-1.63c-.89-.74-.75-1.78-.77-2.76V131.9c0-3.47-1.45-6.41-3.16-9.28a2.24,2.24,0,0,1-.41-.85A1.78,1.78,0,0,1,224.33,120Z" fill="#203957"/><path d="M31.19,68.43l2.34,5.35,5.81,1c.2,2.49,2,4.08,4.79,4.36,1.49.15,3.06-.34,4.46.56l-2.06,4,.5,1.94C37,85.17,30.87,78.44,31.19,68.43Z" fill="#233a58"/><path d="M108.48,129.3c.8.39,1.63.73,2.39,1.18s1.47,1,2.21,1.48l-9,7.18c-1.66-1.09-2.12.36-2.46,1.37-.55,1.66-.82,3.42-1.4,6l-3.42-4.08v-1c1.53-1.79,1.56-4.27,2.85-6.17h0c.35-.25.85-.17,1.15-.53h0c.31-.3.82-.2,1.1-.57h0c.35-.3,1-.18,1.19-.69Z" fill="#1e3a5c"/><path d="M31.6,172.77l3.83-2.3-.16-1h14c2.2,0,3.85.87,4.53,3.11h0c-.41-.38-.54,0-.73.26h0c-.46.44-1.33-.11-1.65.67l.06-.06c-1.79.08-3.49,1.16-5.35.49a89.3,89.3,0,0,1-9,.38C35.34,174.16,33.48,173.29,31.6,172.77Z" fill="#203b61"/><path d="M54.91,97.73l-4,1-1.06-2.28,3.77-10.94L57,84l1.85,2.77,5.21.81-4.85.33c-1.19,2.81-2.4,5.69-3.61,8.56-.68.16-.63.72-.67,1.23Z" fill="#1b3659"/><path d="M167.89,202.89l-2.69,1.53c.16,1.11.28,2,.39,2.82-4.07-1.61-6.36-4.94-8.31-8.61.3-4.48-.63-9.1,1.6-13.35,2.07.45,1.3,2,1.13,3.18-.47,3.19.22,5.88,2.78,8C164.12,198.88,166.48,200.51,167.89,202.89Z" fill="#203957"/><path d="M34.76,158c-5.58-7.15-5.45-10.77.09-13.59l3.89,5.46Z" fill="#203b61"/><path d="M216.09,95.81l-1.32-.8.78-3.52c7.31,1.83,13.52-3.43,13.88-2.91C226.33,93.49,221.66,95.46,216.09,95.81Z" fill="#203b61"/><path d="M171.63,62.35a6.9,6.9,0,0,1-.45-1.25,3.7,3.7,0,0,1,.21-1.13l4.06-1.34L185.62,60C184.62,63.37,178.16,64.49,171.63,62.35Z" fill="#203b61"/><path d="M74,26.67l-2.6-1.26-1.4,3c-3.86-2.62-5.1-4.12-5.86-7.63,1.16-.22,2.81-1,3.38-.56A89.62,89.62,0,0,1,74,26.67Z" fill="#263753"/><path d="M46.51,167.29l-.31-2.11L43.66,165l7.69-9.39.44,3c.14.34-.12.59-.22.87A12.31,12.31,0,0,1,46.51,167.29Z" fill="#263753"/><path d="M99.68,135.34c-.47,2.28.25,5.11-2.85,6.17l-1.44.17c.71-1.65,2.61-3.18.51-5.1Z" fill="#1b3659"/><path d="M33,167.71c-2.06-.2-6.51-4-6.65-5.88-.05-.55.57-1.15.89-1.73-.64,2.23,1,3.29,2.33,4.51C30.68,165.66,31.84,166.68,33,167.71Z" fill="#263753"/><path d="M27.76,45.39c.61.32,1.53.5,1.77,1,1,2,1.8,4.17,2.68,6.28Z" fill="#263753"/><path d="M76.7,35.48l-1.9-3.65c2.73-1.77,4.23-1.58,6.22.45l-5.2-.89Z" fill="#203957"/><path d="M70,28.38c.32.14.89.25.91.42.29,3,.51,6,.75,9C69.86,34.89,69.78,31.67,70,28.38Z" fill="#263753"/><path d="M34.4,67.32H31.18V64.23l.94-.36Z" fill="#233a58"/><path d="M61.83,152.92c-.53,2.36-2.11,3.3-4.4,3.28Z" fill="#1b3659"/><path d="M166.81,31l-.68,1.72-1.83-2.89A5.28,5.28,0,0,1,166.81,31Z" fill="#203b61"/><path d="M46.19,173.88l5.35-.49Z" fill="#1b3659"/><path d="M61.91,159.12l2.69-1.75Z" fill="#1b3659"/><path d="M167.25,33.83l1.64,1Z" fill="#203b61"/><path d="M38.25,69.51,36.6,69Z" fill="#233a58"/><path d="M28.32,130.39,27.13,132Z" fill="#152d52"/><path d="M43.9,39.81l-2.36-1Z" fill="#263753"/><path d="M51.41,85.61l1.64-.22Z" fill="#233a58"/><path d="M67.88,47.55l-.49,1.37-.55-1.44Z" fill="#233a58"/><path d="M35.77,168.29l-2.46-.47Z" fill="#263753"/><path d="M29.16,129.13l-.87,1.29Z" fill="#152d52"/><path d="M213.54,91.41l-2.36-.4Z" fill="#203b61"/><path d="M51.48,173.45l1.65-.67Z" fill="#1b3659"/><path d="M39.84,167.65l-1.94.62Z" fill="#263753"/><path d="M46.5,168.67l-1-.66c.19-.56.57-.48,1-.31Z" fill="#dedee1"/><path d="M100.81,134.83l-1.15.53Z" fill="#1b3659"/><path d="M101.91,134.27l-1.1.57Z" fill="#1b3659"/><path d="M103.08,133.59l-1.19.69Z" fill="#1b3659"/><path d="M132.08,31.54l-1.08.17Z" fill="#1e3a5c"/><path d="M46.43,167.7l-1,.31,1.08-.74A2,2,0,0,1,46.43,167.7Z" fill="#263753"/><path d="M83.65,34.45l.65,1.1Z" fill="#203957"/><path d="M169.26,35l1.28.49Z" fill="#203b61"/><path d="M170.8,35.56l1.37.42Z" fill="#203b61"/><path d="M77.32,37.09l-.56-1.41Z" fill="#203957"/><path d="M77.81,38.23,77.29,37Z" fill="#203957"/><path d="M79,40.91l-.63-1.36Z" fill="#203957"/><path d="M80,43.15l-.53-1.25Z" fill="#203957"/><path d="M80.52,44.26,80,43.12Z" fill="#203957"/><path d="M54.9,97.7l.67-1.23Z" fill="#152d52"/><path d="M83.29,49.74l-.58-1.1Z" fill="#203957"/><path d="M214,196l1-.75Z" fill="#1c395d"/><path d="M211.81,197.64l1-.73Z" fill="#1c395d"/><path d="M210.1,198.65l1.09-.64Z" fill="#1c395d"/><path d="M74.43,26.94l-.48-.3Z" fill="#263753"/><path d="M51.57,159.55l.22-.87Z" fill="#dedee1"/><path d="M81,32.24l.64.42Z" fill="#203957"/><path d="M81.92,32.8l.75.59Z" fill="#203957"/><path d="M43.15,165.5l-.72.58Z" fill="#263753"/><path d="M83.15,33.86l.58.66Z" fill="#203957"/><path d="M78.32,39.32l-.46-.92Z" fill="#203957"/><path d="M41.53,166.68l-.8.49Z" fill="#263753"/><path d="M40.43,167.31l-.67.39Z" fill="#263753"/><path d="M72.35,39.33l.41.64Z" fill="#263753"/><path d="M72.72,39.93l.33.29-.16.19A.58.58,0,0,1,72.72,39.93Z" fill="#263753"/><path d="M96.87,40.44a1,1,0,0,1-.38-.28A.41.41,0,0,1,96.87,40.44Z" fill="#203957"/><path d="M79.34,41.51,79,40.83Z" fill="#203957"/><path d="M27.23,44.82l.56.6Z" fill="#263753"/><path d="M230.36,123.87l-.44-.93Z" fill="#263753"/><path d="M53.09,172.8l.73-.26Z" fill="#1b3659"/><path d="M65.78,46.41l-.62-.56Z" fill="#233a58"/><path d="M69,45.81l-.47.64Z" fill="#233a58"/><path d="M66.36,46.93l-.63-.56Z" fill="#233a58"/><path d="M66.87,47.52l-.56-.64Z" fill="#233a58"/><path d="M82.12,47.55l-.44-.8Z" fill="#203957"/><path d="M82.72,48.65l-.49-.84Z" fill="#203957"/><path d="M27.19,132l-.56.67Z" fill="#152d52"/><path d="M81,45.35l-.43-.89Z" fill="#203957"/><path d="M215,195.25l.63-.52Z" fill="#1c395d"/><path d="M213.4,196.45l.69-.52Z" fill="#1c395d"/><path d="M212.82,196.91l.64-.51Z" fill="#1c395d"/><path d="M211.17,198l.71-.46Z" fill="#1c395d"/><path d="M165.65,61.28c.17,1.66.33,3.32.5,5A68.51,68.51,0,0,0,157.1,60a7.33,7.33,0,0,0-3.62-1.39c-1.25.23-2.15,2.12-3.85,1.1-6.1-2.16-12.44-2.31-18.83-2.39-3,0-6.06-1-9.09-1.57l-1.43-1.1.46-1a.52.52,0,0,1,.44-.55h0a1.48,1.48,0,0,1,.55-.56h0a1.5,1.5,0,0,1,.55-.54h0a1.45,1.45,0,0,1,.55-.55h0c2.81-4,6.88-5.84,11.57-6.59l1-.12c.37-.23.82-.2,1.19-.42,8.93-.91,16.08,2.65,22.23,8.8,1.61,1.6,3.45,3,5,4.66A16.36,16.36,0,0,1,165.65,61.28Z" fill="#0b9da4"/><path d="M134.41,44.85l-11.57,6.59-.64-2-4,3.06h-2.09c-.64-1.32.39-2,1.09-2.79a43.52,43.52,0,0,1,12.55-9.41,2.1,2.1,0,0,1,2.38.15l-.47,3.81Z" fill="#1a3e60"/><path d="M134.57,39.52c-2.8-.51-2-.54-2.08-2.92,1.76-.49,3.62-.74,5.45-1.1,3.66-.13,7.29,0,10.45,2.2.93.66,2.12,1.22,1.83,2.73l-12.1-1" fill="#0a8089"/><path d="M150.22,40.43C147,36.58,142.69,35.87,138,36c-.16-1,.85-.66,1.22-1,5-.2,9.77.48,13.5,4.27a22.73,22.73,0,0,1,2,2.75h0c-.87.12-1.3-.13-2.73-.86a3.23,3.23,0,0,0-1.82-.72Z" fill="#0ba7a8"/><path d="M132.11,40.41l-2.19.56c-.86-1-2.1-1.7-2.81-2.88l7.2-2.64,4.95-.47L138,36l-5.08.74-.39.76,2.84,1.76" fill="#157e8b"/><path d="M135.41,39.29l2.71.11" fill="#1a3e60"/><path d="M136.62,44.31l-1.19.42Z" fill="#1a3e60"/><path d="M150.21,40.43l.59.5Z" fill="#0a8089"/><path d="M193.18,172.08c.34,1.59.64,3.19,1,4.77.49,2.09,1,4.17,1.55,6.26,1.14,5.76,8.82,10,14.85,8.22l1.57.52c-4.16,1.87-7.69,3.56-11.3,5-3.85,1.57-7.79,2.94-11.69,4.4l-6.41,1.2c-1.66-.27-3.44-.14-4.74-1.52a3.14,3.14,0,0,1,.1-2.86,5.5,5.5,0,0,0,.38-1.55c.43-4.3,2.66-7.85,4.75-11.46.49-.86,1-1.72,1.52-2.57,2.09-3.17,4.47-6.14,6.69-9.22A2.39,2.39,0,0,1,193.18,172.08Z" fill="#0aa0a7"/><path d="M204.47,165.6a50.21,50.21,0,0,1,3.44-6.74,35.37,35.37,0,0,0,6.58-21.44,26.86,26.86,0,0,0-6.74-17.19c-2.33-2.66-4.59-5.39-4.41-5.8,3-1,4.22-.93,6.52-.34.3.25,9.32,14.89,9.38,15.27a2,2,0,0,0,.67,1.79,3.07,3.07,0,0,1,.42.58,4.15,4.15,0,0,1,.29,1.1c0,.4.08.81.09,1.21v1.69a46.85,46.85,0,0,1-4.31,21.47,11.32,11.32,0,0,1-3,4.52l-2.07.7-2-1.72Z" fill="#1e3a59"/><path d="M224.5,122.21a11.33,11.33,0,0,1,1.6,1.92,21.06,21.06,0,0,1,2.12,11.31c-.18,2.35,0,4.73-.05,7.1L226,147.48l-.34-.31a3.35,3.35,0,0,1-.13-2.9,24.6,24.6,0,0,0-.06-16.29C225.49,126,223.39,124.37,224.5,122.21Z" fill="#2e3255"/><path d="M195.27,73.41l1.09-.5,2.73-.63h0c-1.05,1.24-1.88,2.81-3.18,3.64A15.64,15.64,0,0,1,184.4,78l-4.53-.81c-.84-.55-2-.39-2.73-1.13h0l-2.72-2,.18-.65c6.36,1.52,12.73,2.8,19.13.64C194,73.3,194.67,73.4,195.27,73.41Z" fill="#0b9da4"/><path d="M179.93,86.34c-.77-.8-1.49-1.65-2.31-2.39-2.13-2-4.31-3.85-6.47-5.77-.48-.11-.82-.35-.77-.91l1.25-.07C175.08,79.62,178.46,82.11,179.93,86.34Z" fill="#2e3255"/><path d="M177.14,76.07l2.73,1.13Z" fill="#1a3e60"/><path d="M183.13,90.94l-1-1.66Z" fill="#2e3255"/><path d="M186.45,97.53l-.52-1.11Z" fill="#2e3255"/><path d="M183.71,92l-.57-1Z" fill="#2e3255"/><path d="M193.56,94.79l-1.08-.58Z" fill="#7d589d"/><path d="M190.37,93.56l.5,1.22Z" fill="#2e3255"/><path d="M181.48,88.28l-.51-.64Z" fill="#2e3255"/><path d="M182.06,89.23l-.37-.48Z" fill="#2e3255"/><path d="M184.19,92.79l-.45-.76Z" fill="#2e3255"/><path d="M190.91,95.15l.48.72Z" fill="#2e3255"/><path d="M199.09,72.28l.12-.19-.15.16Z" fill="#0b9da4"/><path d="M180.44,87l-.37-.45Z" fill="#2e3255"/><path d="M181,87.63l-.45-.56Z" fill="#2e3255"/><path d="M58,77.78l-1-.6c-.3-.31-.89-.17-1.08-.66l0,.06a1,1,0,0,1-.63-.54h0a1.76,1.76,0,0,1-.59-.56h0a1.23,1.23,0,0,1-.54-.63l2.7-1.53a1.12,1.12,0,0,1,.11-.25,2.07,2.07,0,0,1,.4-.38c.13-.12.28-.23.42-.34a3.41,3.41,0,0,0,.38-.38c.12-.13.17-.22.16-.23.14-.25.26-.51.38-.78a4.7,4.7,0,0,1,.25-.57,9.61,9.61,0,0,0,.66-2.22,2.76,2.76,0,0,1,.91-1.51l.17-5.45a.68.68,0,0,1,1,0l.09.1h0a4.48,4.48,0,0,1,1.71,1.58h0c.15.21.33.4.5.6l.48.53a1.65,1.65,0,0,1,.6.63l.49.47a1.94,1.94,0,0,1,.62.59l.53.49a6.35,6.35,0,0,1,.58.58l.51.52a1.32,1.32,0,0,1,.54.73.32.32,0,0,0,.12.35c1.72,3.32-.59,5.56-2.28,7.81-1.42,1.89-3.32,3.26-6,2.46h0c-.4-.15-.87-.1-1.2-.44l-.11-.1h-.14A1.31,1.31,0,0,1,58,77.78Z" fill="#d3b775"/><path d="M80.54,61.28A30,30,0,0,1,72.3,78.39c-.41.2-.24.76-.63,1h0C70,79.65,68.9,82,66.84,80.56c.49-1.83,2.16-2.8,3.16-4.26a11.9,11.9,0,0,0,2.31-5.07A4.87,4.87,0,0,1,73.8,69c.12-1.45.23-2.89.38-4.92Z" fill="#505eb7"/><path d="M73.89,46.45l.87-1c1.21,3.29,2.34,6.39,3.55,9.66l-2.23,1.2h0l-6.86,2.9-.14-1.14L69,58C69.65,53.74,70.7,49.65,73.89,46.45Z" fill="#0ba7a8"/><path d="M73,71.16c-.54,4.11-3.3,6.76-6.18,9.33L64.57,81l-.7-1.47-3.62-.87c4.54-.41,8.34-5.14,8.25-10.27l1,.56C70.33,70.26,72,70.23,73,71.16Z" fill="#263753"/><path d="M73.89,46.45,69,58l-1.15-5c-.16-2.79,1.28-4.71,3.84-6.59Z" fill="#203b61"/><path d="M73,71.16H69.84L69.54,69H73.8Z" fill="#233a58"/><path d="M76.08,56.31l1.93.27-.31.87L76.09,56.3Z" fill="#233a58"/><path d="M63.51,62.89,61.8,61.31l1.69.52Z" fill="#263753"/><path d="M64,63.52l-.5-.6Z" fill="#263753"/><path d="M65.11,64.68l-.6-.63Z" fill="#263753"/><path d="M66.22,65.74l-.62-.59Z" fill="#263753"/><path d="M67.33,66.81l-.58-.58Z" fill="#263753"/><path d="M68.38,68.06l-.54-.73Z" fill="#263753"/><path d="M46.52,63.37a.86.86,0,0,0,0-.32c.68-1,1.91-1,2.86-1.54h.08c0-.61.52-.88.89-1.24h0c.38-2.66.77-5.32,1.19-8.19C55.7,56,58.7,60.19,56,66.21a1.41,1.41,0,0,1-.66,1.19c-1.52.82-3,.35-4.43-.22l.06.06c-.3,0-.45-.29-.66-.46h0c-.27-.34-.83-.21-1.06-.63v0a1.67,1.67,0,0,1-.61-.57l-.56-.5c-.17-.19-.37-.36-.55-.55h0L47,64h0A2.75,2.75,0,0,1,46.52,63.37Z" fill="#d3b775"/><path d="M46.45,56.32c-3.16.37-5.31-1.37-7.44-3.51l2.75-1.15.46-7c4.47,2.49,6.14,5.85,5.3,10.55h0a2.46,2.46,0,0,1-1.08,1.13Z" fill="#d3b775"/><path d="M55.26,66.87l.74-.66c.91-2,1.83-4,3-6.48.55,2.39,1.07,4.68,1.6,7l-.31,1.69c-.78.78-.75,1.88-1.09,2.85h0c-.49.19-.36.76-.66,1.06h0a1.93,1.93,0,0,0-.55.59h0c-.34.26-.84.16-1.14.52H53.72l.37-2.67-1-2.28C53.63,67.66,54.79,67.75,55.26,66.87Z" fill="#203b61"/><path d="M31.67,42a8.82,8.82,0,0,0,1.54-2,9.08,9.08,0,0,0,.22-2.55,5.06,5.06,0,0,1,4.83,5c.11,1.34,0,2.7,0,4h0a5.08,5.08,0,0,0-.5.54H37.7a.68.68,0,0,1-1,0,.45.45,0,0,1-.11-.13h0c-.33-.28-.89-.16-1.09-.64v.06a1,1,0,0,1-.62-.64Z" fill="#d3b775"/><path d="M63.47,57.16C60.69,54,57.81,51.33,58.7,46.81,64,50.36,65,52.34,63.47,57.16Z" fill="#7159ae"/><path d="M61.82,61.33l-1.06-.07.49-1.33Z" fill="#263753"/><path d="M35.56,46.33l1.09.64Z" fill="#263753"/><path d="M36.61,46.94l1.07.08Z" fill="#263753"/><path d="M35,45.75l.62.64Z" fill="#263753"/><path d="M37.74,47l.5-.54Z" fill="#263753"/><path d="M22.83,32l1.78-1.88V26.68c3.15,2.73,5.16,5.58,4.09,10.24Z" fill="#d3b775"/><path d="M20.13,25.87C18.53,23.55,15.54,22,15.71,18,18.64,20.23,20.7,22.26,20.13,25.87Z" fill="#d3b775"/><path d="M48.59,79.74c-4.26.75-8.05.2-10.69-4l1.44-.87L40,75c3.2,1.13,6.42,2.19,9.68,3.12l.33.13c.12.46.11.87-.44,1Z" fill="#c3238e"/><path d="M49.67,78.13c-3.66.33-6.8-1-9.68-3.12l7.16-1.42,2.07,3.07a2.66,2.66,0,0,1,.51.64Z" fill="#dedee1"/><path d="M55.26,66.87l-2.19,1.55-2.15-1.24Z" fill="#233a58"/><path d="M49.39,61.51,46.53,63Z" fill="#233a58"/><path d="M49.56,79.31l.44-1,1.08.79Z" fill="#233a58"/><path d="M50.36,60.22l-.89,1.24Z" fill="#233a58"/><path d="M46.46,56.32l1.08-1.13Z" fill="#233a58"/><path d="M49.25,66.14l1.06.63Z" fill="#233a58"/><path d="M59.1,78.29l1.2.44Z" fill="#263753"/><path d="M55.87,76.52l1.08.66Z" fill="#263753"/><path d="M46.52,63.37,47,64Z" fill="#233a58"/><path d="M47,64l.54.54Z" fill="#233a58"/><path d="M47.58,64.57l.55.55Z" fill="#233a58"/><path d="M48.69,65.62l.61.57Z" fill="#233a58"/><path d="M50.32,66.78l.66.46Z" fill="#233a58"/><path d="M54.22,74.9l.54.63Z" fill="#263753"/><path d="M54.73,75.51l.59.56Z" fill="#263753"/><path d="M55.29,76l.63.54Z" fill="#263753"/><path d="M49.73,77.3l-.51-.64Z" fill="#233a58"/><path d="M58,77.78l.84.46Z" fill="#263753"/><path d="M151.79,175.5a.53.53,0,0,0,.13-.42,1.53,1.53,0,0,1,.52-.69h0c.16-.17.31-.36.46-.55a.59.59,0,0,0,.13-.41,1.49,1.49,0,0,1,.5-.69h0c.16-.18.32-.36.47-.56v-.06c.38-.23.24-.78.61-1h0a5.37,5.37,0,0,1,.49-.58h0l.34-.16.28.25-4.35,6.63-.32-.18c-.06-.37-.1-.74.26-1h0Z" fill="#ab2791"/><path d="M149.08,182.59c.41-1.43.82-2.86,1.22-4.29h0c.28-.33.17-.84.54-1.13h0c.12-.26.28-.3.48-.08l.16.15Z" fill="#ab2791"/><path d="M152.93,203l-2-2.82Z" fill="#ab2791"/><path d="M160.19,165.11l-1.83,2.08a.69.69,0,0,1,.11-1l0,0h0a2,2,0,0,1,.55-.57h0a6.91,6.91,0,0,1,.51-.57h0l.35-.21Z" fill="#ab2791"/><path d="M157.88,167.76,156.31,170l-.26-.21a.75.75,0,0,1,.26-.91h0a2.29,2.29,0,0,1,.55-.57h0l.51-.57h0C157.53,167.53,157.7,167.51,157.88,167.76Z" fill="#ab2791"/><path d="M166.66,156.24l1.16-1.58Z" fill="#ab2791"/><path d="M150.73,199.71l-1.12-2.24Z" fill="#ab2791"/><path d="M160.56,164.42l1.19-1.57Z" fill="#ab2791"/><path d="M161.75,162.85l1.14-1.58Z" fill="#ab2791"/><path d="M157.88,167.76h-.51l1.14-1.59-.15,1Z" fill="#203957"/><path d="M165.51,157.86c.22-.33.45-.65.68-1C166,157.21,165.73,157.53,165.51,157.86Z" fill="#ab2791"/><path d="M163.86,160.06l.67-1Z" fill="#ab2791"/><path d="M154.6,205.16l-.66-1Z" fill="#ab2791"/><path d="M149.63,197.49l-.57-1.13Z" fill="#ab2791"/><path d="M167.83,154.64l.48-.61Z" fill="#ab2791"/><path d="M166.22,156.84l.46-.6Z" fill="#ab2791"/><path d="M165,158.44l.51-.61Z" fill="#ab2791"/><path d="M164.55,159l.48-.6Z" fill="#ab2791"/><path d="M163.37,160.64l.52-.61Z" fill="#ab2791"/><path d="M162.91,161.23l.48-.6Z" fill="#ab2791"/><path d="M160,164.5l.6-.1-.39.71L160,165A.38.38,0,0,1,160,164.5Z" fill="#ab2791"/><path d="M156.31,170l-.52.56-.15-.15c-.09-.4.09-.58.48-.59Z" fill="#ab2791"/><path d="M153.43,203.57l-.51-.61Z" fill="#ab2791"/><path d="M154,204.13l-.54-.56Z" fill="#ab2791"/><path d="M127.11,38.09c1.46.45,3,.79,2.81,2.88-5.33,3-10.49,6.13-13.83,11.49-.74,0-1.61.38-2.18.09-1.61-.8-3.09-1.85-5.14-3.13l6.87-5.73Z" fill="#505eb7"/><path d="M121.18,53.11l-.44.55-.35-.45Z" fill="#1a3e60"/><path d="M122.82,51.44l-.55.55Z" fill="#1a3e60"/><path d="M122.27,52l-.55.54Z" fill="#1a3e60"/><path d="M121.72,52.53l-.55.56Z" fill="#1a3e60"/><path d="M149.63,59.67l4-2.16c4.25,2.08,9.32,4,12.53,8.74l-3.81-.59-10.57-4.88C151.05,60.44,150.35,60,149.63,59.67Z" fill="#157e8b"/><path d="M154.65,67.86l-.57-.51Z" fill="#7159ae"/><path d="M162.79,196.89c-3-.43-3-3.14-3.69-5.19-.36-1.09.21-2.46.2-3.71a20.63,20.63,0,0,0-.42-2.71.71.71,0,0,1,.21-.49c.39-.87.36-1.9,1-2.66l.07-.08c.22-.3.18-.73.49-1l.09-.08a7.53,7.53,0,0,0,1.56-2.68l.08-.07c.44-.46.57-1.12,1-1.56l.05-.08c.44-.46.58-1.13,1-1.58l0-.08a6.26,6.26,0,0,1,.45-.57h0a9.84,9.84,0,0,0,1.7-2.1l.06-.07a1.23,1.23,0,0,1,.46-.5l.54-.61c.17-.2.38-.36.54-.55h0a4.9,4.9,0,0,0,.54-.57h0a2.21,2.21,0,0,0,.56-.58h0a1.54,1.54,0,0,0,.57-.59h0a1.35,1.35,0,0,0,.58-.6h0a1.32,1.32,0,0,0,.58-.59h0a1.05,1.05,0,0,0,.57-.6h0c.44-.17.3-.75.69-.94l.08-.1a1,1,0,0,1,.44-.48l.07-.07a1.89,1.89,0,0,1,.47-.51l0,0a3.57,3.57,0,0,1,.5-.53h0c.18-.19.35-.37.52-.57h0c3.08-.92,2.14,1.72,2.71,3,0,3-2.11,4.74-3.87,6.64-4.42,4.75-7.79,10-9.08,16.49a22.44,22.44,0,0,0-.5,4C163.59,195.12,163.73,196.18,162.79,196.89Z" fill="#233a58"/><path d="M176.65,167.28a7.63,7.63,0,0,0-.66-1.86,9.59,9.59,0,0,0-1.63-1.49c4.52-5.68,9.11-11.31,11.9-18.13.44-1.09.86-2.19,1.28-3.29.55-.41.05-1.19.57-1.62a.29.29,0,0,0,.08-.34,1.17,1.17,0,0,1,.39-.61,5.19,5.19,0,0,1,1.25-.87c1.72-.74,1.93-2.81,3.12-3.74a1.19,1.19,0,0,1,1.61.49,1.86,1.86,0,0,1,.1.25c.35,3.5-1.35,6.55-2.28,9.74a38.27,38.27,0,0,1-3.7,8.23,59.53,59.53,0,0,1-9.05,12C178.84,166.8,178.11,168,176.65,167.28Z" fill="#263753"/><path d="M188.88,138.49l.79-1.52c1,.91.79,1.86.08,2.82l-1.07.56a.72.72,0,0,1-.1-1,.47.47,0,0,1,.1-.1Z" fill="#2e3255"/><path d="M162.32,178.31l-1.56,2.7Z" fill="#263753"/><path d="M166.73,172.27l-1.7,2.1Z" fill="#263753"/><path d="M160.11,182.13l-1,2.66Z" fill="#263753"/><path d="M164.53,175l-1,1.58Z" fill="#263753"/><path d="M163.44,176.68l-1,1.56Z" fill="#263753"/><path d="M188.11,140.89l-.57,1.62Z" fill="#e22888"/><path d="M172.22,166.26l-.69.94Z" fill="#263753"/><path d="M160.67,181.07l-.49,1Z" fill="#263753"/><path d="M188.65,139.24v1.11l-.49.2Z" fill="#e22888"/><path d="M173.83,164.52l-.5.53Z" fill="#263753"/><path d="M173.28,165.1l-.47.51Z" fill="#263753"/><path d="M172.74,165.68l-.44.48Z" fill="#263753"/><path d="M171.58,167.16l-.57.6Z" fill="#263753"/><path d="M171.05,167.72l-.58.59Z" fill="#263753"/><path d="M170.5,168.27l-.58.6Z" fill="#263753"/><path d="M170,168.83l-.57.59Z" fill="#263753"/><path d="M169.42,169.4l-.56.58Z" fill="#263753"/><path d="M168.88,170l-.54.57Z" fill="#263753"/><path d="M168.33,170.54l-.54.55Z" fill="#263753"/><path d="M167.25,171.7l-.46.5Z" fill="#263753"/><path d="M174.37,163.93l-.52.57Z" fill="#263753"/><path d="M165,174.37l-.45.57Z" fill="#263753"/><path d="M171.23,80.43l-1.77-3.26.92.1.77.91C171.18,78.93,171.2,79.68,171.23,80.43Z" fill="#7d589d"/><path d="M195.27,73.41l-1.53.62-.55-.72.25-.49Z" fill="#1e3a59"/><path d="M159.55,70l-.58-.49Z" fill="#1c395d"/><path d="M156.12,169.86l-.48.59-.47.06,1.14-1.59Z" fill="#203957"/><path d="M154.66,171.11l-.61,1Z" fill="#203957"/><path d="M151.28,177.08a4,4,0,0,1-.48.08l.58-1.11Z" fill="#203957"/><path d="M150.81,177.14l-.54,1.13Z" fill="#203957"/><path d="M160,164.5a1.69,1.69,0,0,1,0,.45,2.34,2.34,0,0,1-.45.07Z" fill="#203957"/><path d="M159.54,165.06l-.51.57Z" fill="#203957"/><path d="M159,165.62l-.55.57Z" fill="#203957"/><path d="M157.34,167.8l-.51.57Z" fill="#203957"/><path d="M156.84,168.36l-.55.57Z" fill="#203957"/><path d="M155.14,170.55l-.49.58Z" fill="#203957"/><path d="M154,172.18l-.47.56Z" fill="#203957"/><path d="M152.89,173.85l-.46.55Z" fill="#203957"/><path d="M152.44,174.39l-.52.69Z" fill="#203957"/><path d="M151.79,175.5l-.44.58Z" fill="#203957"/><path d="M153.52,172.75l-.5.69Z" fill="#203957"/><path d="M176.65,167.28c4.32-2.76,7-7,9.79-11.08.5-.74,1.06-1.44,1.59-2.16,2.17-.54,1.55,1,1.24,1.88a16.83,16.83,0,0,1-2.63,4.79,15.32,15.32,0,0,0-2.39,4,2.69,2.69,0,0,1-.48.63c-1.41.61-2.2,1.88-3.1,3a52.89,52.89,0,0,0-7.27,10.48c-.09.22-.19.43-.3.64-.28.54-.06,1.13-.13,1.71-.61,2.19-1.81,4.14-2.47,6.31-1.71,5.57-1.09,10.53,3.68,14.44a1.58,1.58,0,0,1-.37,1.62l-5.92-.62c-2.34-1.46-4.4-3.15-5.1-6-.33-9.54,3.58-17.29,10-24.06A42.94,42.94,0,0,0,176.65,167.28Z" fill="#0a8089"/><path d="M173.81,203.51v-1.68a3.22,3.22,0,0,1,1.64-1c.87-.21,1.74-.75,2.64-.1l4.66,1.79Z" fill="#0b9da4"/><path d="M224.33,120v1.66c-1.33.25-1.72-.85-2.15-1.67a33.1,33.1,0,0,0-9.33-10.84,3.72,3.72,0,0,1-1.81-2.61c.07-.11.14-.22.2-.33,1.78,1.18,3.57,2.36,5.34,3.55,1.29.87,2.57,1.76,4.25,2.92v1.57l1.77-.78,3.32,3.84Z" fill="#2e3255"/><path d="M210.45,105.77a1.51,1.51,0,0,0,0-.52l.76,1-.08.08C210.67,106.44,210.47,106.21,210.45,105.77Z" fill="#2e3255"/><path d="M71.67,79.36l.63-1Z" fill="#1e3a5c"/><path d="M172.09,147.8l-.52.76Z" fill="#ab2791"/><path d="M148.66,182.64l-.6,2.24Z" fill="#263753"/><path d="M195.85,112.84h0l.43.57c2.45,6.08,5.68,12,7.18,18.27,3,12.74.17,24.73-7,35.67-1,1.6-2.17,3.15-3.25,4.72l-7.78,10.65a1.65,1.65,0,0,1-.45-2.2c1.78-2.6,1-5.94,2.66-8.57.15-.25,0-.71.07-1.06,2.65-4.67,5.77-9,8-14,3.28-7.24,4.86-14.66,2.86-22.54-.23-2.39-1.5-4.49-1.91-7,0-.23-.46.31-.13.15.09,0,.13,0,.13.22a29.79,29.79,0,0,1-.87,6.23c-.17.86-.38,1.84-1.54,2a6.4,6.4,0,0,0-1.58.82c-1,.91-1.94,1.93-2.89,2.9l-.08-2.82h0c.87-.77.57-1.8.58-2.75l.12-1.08a1,1,0,0,0,.07-1.06c0-.74.07-1.48.11-2.22.46-.58,1.3-1.15,1.32-1.74a103.78,103.78,0,0,0-.31-12.22c.5-1.14,1-2.28,1.58-3.56" fill="#1c395d"/><path d="M196.24,113.42l-.43-.57Z" fill="#2e3255"/><path d="M188.12,171.15c-.1.91-.2,1.82-.28,2.49-.59,2.1-1.09,3.79-1.55,5.5-.32,1.19-.6,2.39-.89,3.59-1.82,3.55-3.7,7.06-5.41,10.65a13.88,13.88,0,0,0-.71,3.42c-.26.35-.18.84-.46,1.17-.24.91-.47,1.82-.71,2.72l-2.46.41c-2-2.09-2.26-4.64-1.82-7.33a24.63,24.63,0,0,1,3-7.89c2.63-4.78,5-9.72,9.08-13.55C186.53,171.74,187,170.74,188.12,171.15Z" fill="#1a3e60"/><path d="M178.82,198l.46-1.17Z" fill="#0b9da4"/><path d="M218.75,127.7l1.1,4a4.84,4.84,0,0,0-.49-.18,2.67,2.67,0,0,1-.5-1.66l-.17-1.08Z" fill="#923392"/><path d="M218.86,129.9l.5,1.66C219.2,131,219,130.45,218.86,129.9Z" fill="#233a58"/><path d="M201.7,107.45l1.74,1.1Z" fill="#c3238e"/><path d="M197.76,105.3l1.87,1Z" fill="#c3238e"/><path d="M199.93,106.4l1.28.73Z" fill="#c3238e"/><path d="M204.48,109.16l1.06.6Z" fill="#c3238e"/><path d="M203.43,108.53l1.06.64Z" fill="#c3238e"/><path d="M205.54,109.74l.56.53Z" fill="#c3238e"/><path d="M189.68,110.67l-.33-.8Z" fill="#c3238e"/><path d="M206.11,110.24l.58.66Z" fill="#c3238e"/><path d="M173.81,83.77l-1.05-1.6Z" fill="#7d589d"/><path d="M174.33,84.34l-.48-.53Z" fill="#7d589d"/><path d="M59.19,71.25l1.09-2.85Z" fill="#1e3a5c"/><path d="M58.57,72.28l.66-1.06Z" fill="#1e3a5c"/><path d="M56.91,73.37l1.14-.52Z" fill="#1e3a5c"/><path d="M58,72.86l.55-.59Z" fill="#1e3a5c"/><path d="M181,124.4l-.49,1.72C180.65,125.55,180.82,125,181,124.4Z" fill="#7d589d"/><path d="M194.22,136.07l2.24-9.45.57-.19q1.08,3.88,2.14,7.78a16.09,16.09,0,0,0-1.37,5c-.83,9.29-5.22,17-11,24-.77.94-1.53,2.13-3.09,1.88.73-1.57,1.4-3.16,2.2-4.69s1.93-3.22,2.76-4.89c.14-.31-.42-1-.66-1.45,1.9-5,3.83-10,5.68-15A16,16,0,0,0,194.22,136.07Z" fill="#157e8b"/><path d="M190.25,134.27c1,1.18.75,2.07-.58,2.75Z" fill="#2e3255"/><path d="M190.44,132.13l-.07,1.06Z" fill="#2e3255"/><path d="M183.73,165.07c7.2-6.95,11.87-15.18,13.24-25.21.27-2-.44-4.53,2.2-5.65A25.78,25.78,0,0,1,198,153.06c-2.75,6.27-6.55,12.08-9.89,18.09-5.58,5.47-9.35,12.12-12.54,19.15a13.16,13.16,0,0,0,.07,10.8l-1.82.73c-4.21-2.28-6.06-6.47-4.68-11.8a94.72,94.72,0,0,1,3.56-9.61.75.75,0,0,1,0-1l0,0h0c3.35-5,6.45-10.19,11-14.26Z" fill="#0ba7a8"/><path d="M183.73,165.07c-2.29,3.1-4.55,6.23-6.88,9.29-1.3,1.71-2.74,3.32-4.11,5,1.86-3.14,3.64-6.32,5.6-9.4a24.36,24.36,0,0,1,3.31-3.93A6.08,6.08,0,0,1,183.73,165.07Z" fill="#157e8b"/><path d="M172.74,179.33v1.09l-1.28-.47Z" fill="#157e8b"/><path d="M213.39,118.8l-.67-1a3.45,3.45,0,0,0-.46-.54l-.16-1,2.32,3.23-.49,0A1.85,1.85,0,0,1,213.39,118.8Z" fill="#c3238e"/><path d="M216,121.79l-1.1-1.69Z" fill="#c3238e"/><path d="M212.15,116.36l-.51,0a.61.61,0,0,1-.43-.38,1.41,1.41,0,0,1,.14-.44Z" fill="#c3238e"/><path d="M207.75,112.36l-.46-.42Z" fill="#2e3255"/><path d="M208.34,112.9l-.5-.45Z" fill="#2e3255"/><path d="M208.93,113.44l-.53-.49Z" fill="#2e3255"/><path d="M209.5,114l-.54-.51Z" fill="#2e3255"/><path d="M210,114.54l-.53-.54Z" fill="#2e3255"/><path d="M210.55,115.1l-.49-.54Z" fill="#2e3255"/><path d="M211.05,115.65l-.45-.5Z" fill="#2e3255"/><path d="M214.92,120.12l-.5-.62Z" fill="#c3238e"/><path d="M218.13,126.12l.64,1.1Z" fill="#ab2791"/><path d="M211.21,116l.43.38Z" fill="#2e3255"/><path d="M212.26,117.28l.46.54Z" fill="#2e3255"/><path d="M213.39,118.8l.54.67Z" fill="#2e3255"/><path d="M225.4,141.42l-1,2.27Z" fill="#c3238e"/><path d="M145.14,65.93a4.12,4.12,0,0,1,1.7.22c.55.15,1.1.32,1.64.51,1.07.38,2.11.82,3.14,1.3a52,52,0,0,1,5.94,3.27,59.42,59.42,0,0,1,10.6,8.64,53.17,53.17,0,0,1,8.39,11.22,46.08,46.08,0,0,1,4.88,13.45,57.51,57.51,0,0,1-1.44,27.7,78.07,78.07,0,0,1-12.07,23.91c.76-4.41,1.74-8.68,2.56-12.91s1.55-8.41,2-12.55a73.39,73.39,0,0,0-.79-24.11c-.44-1.91-.93-3.87-1.54-5.68A55,55,0,0,0,168,95.48,74.19,74.19,0,0,0,161.94,85a119,119,0,0,0-7.7-9.92q-2.07-2.43-4.31-4.78c-.74-.78-1.5-1.56-2.28-2.32A11.84,11.84,0,0,0,145.14,65.93Z" fill="#ec2195"/><path d="M163.27,214.37a14.68,14.68,0,0,1-4.05-1.57,24.94,24.94,0,0,1-3.68-2.39,27.37,27.37,0,0,1-6.12-6.54,24.79,24.79,0,0,1-3.6-8.56,22.67,22.67,0,0,1-.53-4.71,24.79,24.79,0,0,1,.35-4.71,31,31,0,0,1,8-16.19,35.23,35.23,0,0,1,14.56-9.39A101.89,101.89,0,0,0,158,173.09,38.69,38.69,0,0,0,152.37,187,24.66,24.66,0,0,0,154,201.35a35,35,0,0,0,3.83,6.8A36.18,36.18,0,0,0,163.27,214.37Z" fill="#ec2195"/><path d="M146.49,65.57a60.29,60.29,0,0,1,6.48,3c2.12,1.11,4.18,2.33,6.19,3.63a83.83,83.83,0,0,1,11.44,8.86,61.81,61.81,0,0,1,9.58,11.21,44.54,44.54,0,0,1,3.63,6.64,37.14,37.14,0,0,1,2.39,7.35c.26,1.28.46,2.58.6,3.88s.11,2.55.15,3.8a57.8,57.8,0,0,1-.43,7.44,55.3,55.3,0,0,1-11.06,27.07,50.68,50.68,0,0,1-4.83,5.42,36.39,36.39,0,0,1-5.6,4.53,76.21,76.21,0,0,0,12.36-24.55,60.84,60.84,0,0,0,1.53-6.54c.23-1.09.36-2.2.54-3.3s.26-2.21.33-3.32c.2-2.21.22-4.44.2-6.66a35.79,35.79,0,0,0-.6-6.37,37.1,37.1,0,0,0-1.85-6.11,50.71,50.71,0,0,0-2.87-5.88,73.13,73.13,0,0,0-7.89-10.93,129.78,129.78,0,0,0-9.62-10Q152,70,146.49,65.57Z" fill="#ab2791"/><path d="M145.41,64.8a70.8,70.8,0,0,1,38.26,26.07A52.73,52.73,0,0,1,193,113.26a50.74,50.74,0,0,1-2.51,24.52,70.94,70.94,0,0,1-5.16,11.2,89.64,89.64,0,0,1-6.75,10.17c-4.83,6.38-9.94,11.76-13.91,17.41a50.59,50.59,0,0,0-5.13,8.91,44.75,44.75,0,0,0-1.88,4.86c-.29.83-.54,1.68-.79,2.53-.13.45-.21.82-.32,1.22a8.18,8.18,0,0,0-.27,1.19,17,17,0,0,0,.57,9.5c1.09,3.17,3.4,6.1,6.1,8.85l-.59.93a21.93,21.93,0,0,1-10-7.23,21.13,21.13,0,0,1-4-12.66V193a7.88,7.88,0,0,1,.11-1.63c.1-1,.21-2.06.38-3.09a44.82,44.82,0,0,1,1.35-6.16,48.89,48.89,0,0,1,5.11-11.61,66,66,0,0,1,7.32-9.81c2.62-3,5.28-5.68,7.8-8.36a72.22,72.22,0,0,0,6.86-8.34,53.09,53.09,0,0,0,5.14-9.31,43.37,43.37,0,0,0,3.45-20.58,46.66,46.66,0,0,0-6.69-20.29,63.88,63.88,0,0,0-14.58-16.63,75.4,75.4,0,0,0-9.27-6.42,61.25,61.25,0,0,0-10.19-4.91Z" fill="#524ba6"/><path d="M190.77,94.24a2.58,2.58,0,0,1,.68,0h.44l.81.1c.52.09,1,.2,1.52.32a30.43,30.43,0,0,1,2.92.86,46.27,46.27,0,0,1,5.48,2.34,54.68,54.68,0,0,1,9.9,6.46,37.74,37.74,0,0,1,8,9,52.55,52.55,0,0,1,3,5.52,44.29,44.29,0,0,1,2.27,6,43.09,43.09,0,0,1,1.38,6.13,35.29,35.29,0,0,1,.3,6.33,32.49,32.49,0,0,1-3.11,12,50.48,50.48,0,0,1-6.46,9.84c-1.21,1.48-2.46,2.9-3.7,4.31s-2.49,2.79-3.65,4.25l-.93-.59c1.67-3.42,3.68-6.64,5.42-9.89a48.48,48.48,0,0,0,4.17-9.88,25.73,25.73,0,0,0,.94-10,28.19,28.19,0,0,0-.88-4.82,35.86,35.86,0,0,0-1.73-4.64c-.38-.74-.74-1.54-1.13-2.19a22.48,22.48,0,0,0-1.34-2,40.37,40.37,0,0,0-3.24-3.8c-2.32-2.47-4.68-5-7-7.68s-4.68-5.42-7-8.24c-1.18-1.42-2.37-2.86-3.55-4.33l-1.77-2.23c-.29-.37-.59-.74-.89-1.1l-.44-.54-.18-.31c0-.07-.19-.13,0-.19Z" fill="#ec2195"/><path d="M205.58,164.16c-10,11.2-7.67,21.56-8,22.36-1.88,0-7.06-12.61-2.76-18.25,10.11-14.94,14.4-27.74,3.21-49-1.13-2.3-3.43-9-2.69-10.52a42.59,42.59,0,0,1,5.3,3.55c.9.75,1.8,1.49,2.64,2.31,2.45,2.43,6.95,7,8.57,10,1.25,2.4,5.21,7.4,3.05,19.4C214.31,148.7,209,160.36,205.58,164.16Z" fill="#505eb7"/><path d="M58.71,273.29a8.25,8.25,0,0,0-4.46-1.18,4.28,4.28,0,0,0-2.85,1.53,4.18,4.18,0,0,0-1,2.81,5.82,5.82,0,0,0,.75,2.73,31.24,31.24,0,0,0,3.39,4.63,46.28,46.28,0,0,1,4,5.53A10.35,10.35,0,0,1,60,294.71a8.51,8.51,0,0,1-2.27,6.13,7.92,7.92,0,0,1-5.95,2.36h0a5,5,0,0,1-4.9-5.11v-.16h0a7.67,7.67,0,0,0,1.79,1,5.86,5.86,0,0,0,2.5.6,4.38,4.38,0,0,0,3.29-1.33,4.7,4.7,0,0,0,1.29-3.4,5.61,5.61,0,0,0-.66-2.66,24.55,24.55,0,0,0-2.38-3.33l-3.1-3.8A19.51,19.51,0,0,1,47,281a10,10,0,0,1-.85-4.31,8.48,8.48,0,0,1,2.15-6,7.28,7.28,0,0,1,5.58-2.31H54a4.86,4.86,0,0,1,4.69,4.89Z" fill="#1b3b63"/><path d="M75.08,283H72.29v15.45a4.36,4.36,0,0,1-4.36,4.36h0V283H65.14v-3.43h2.79v-2a4.36,4.36,0,0,1,4.36-4.36h0v6.32h2.79Z" fill="#1b3b63"/><path d="M88.34,279.17a6.51,6.51,0,0,1,5.34,2.52c1.35,1.68,2,4.95,2,9.78,0,4.54-.71,7.62-2.11,9.23a6.66,6.66,0,0,1-5.2,2.42,6.31,6.31,0,0,1-5.71-2.9q-1.86-2.89-1.86-8.9c0-4.91.71-8.17,2.12-9.76a6.78,6.78,0,0,1,5.29-2.39Zm2.74,13.39a35.16,35.16,0,0,0-.56-7.87,2.26,2.26,0,0,0-2.23-1.94,2.16,2.16,0,0,0-2.18,1.52,15.62,15.62,0,0,0-.59,5.13c0,4.67.21,7.54.65,8.61a2.24,2.24,0,0,0,2.17,1.57A2.14,2.14,0,0,0,90.52,298a18.9,18.9,0,0,0,.56-5.45Z" fill="#1b3b63"/><path d="M113.09,283a7,7,0,0,0-4.28,1.15c-.86.71-1.28,2.28-1.28,4.73v9.52a4.43,4.43,0,0,1-4.41,4.41h0V284a4.4,4.4,0,0,1,4.4-4.42h0V283h.11c1.26-2.51,3-3.76,5.15-3.77l.3.05Z" fill="#1b3b63"/><path d="M135.57,279.56l-9.68,29.91a5.21,5.21,0,0,1-5,3.62h0l3.81-12.36-6.31-21.17h0a5.53,5.53,0,0,1,5.37,4.24l2.81,11.75h.11l3.55-12a5.55,5.55,0,0,1,5.31-4Z" fill="#1b3b63"/><path d="M165.31,273.29a8.25,8.25,0,0,0-4.46-1.18,4.28,4.28,0,0,0-2.85,1.53,4.13,4.13,0,0,0-1,2.81,5.82,5.82,0,0,0,.75,2.73,31.24,31.24,0,0,0,3.39,4.63,46.28,46.28,0,0,1,4,5.53,10.34,10.34,0,0,1,1.4,5.37,8.46,8.46,0,0,1-2.28,6.13,7.88,7.88,0,0,1-5.94,2.36h0a5,5,0,0,1-4.9-5.11v-.16h0a7.67,7.67,0,0,0,1.79,1,5.86,5.86,0,0,0,2.5.6A4.36,4.36,0,0,0,161,298.2a4.7,4.7,0,0,0,1.29-3.4,5.71,5.71,0,0,0-.65-2.66,23.78,23.78,0,0,0-2.39-3.33l-3-3.75a20.78,20.78,0,0,1-2.63-4,10,10,0,0,1-.85-4.31,8.44,8.44,0,0,1,2.16-6,7.25,7.25,0,0,1,5.58-2.31h.15a4.86,4.86,0,0,1,4.69,4.89Z" fill="#1b3b63"/><path d="M178,282.12a8.83,8.83,0,0,1,2.06-2.21,4,4,0,0,1,2.35-.69,4.51,4.51,0,0,1,4.42,2.77c.86,1.84,1.3,4.85,1.3,9,0,4.67-.46,7.87-1.37,9.62a4.54,4.54,0,0,1-4.29,2.57,3.91,3.91,0,0,1-2.16-.57,9.87,9.87,0,0,1-2.2-2.36H178v8.46a4.36,4.36,0,0,1-4.36,4.36h0V283.82a4.25,4.25,0,0,1,4.24-4.26h0v2.56Zm2.6,17.33a2.35,2.35,0,0,0,2.24-1.82,19.14,19.14,0,0,0,.66-5.93,26.16,26.16,0,0,0-.61-6.78c-.41-1.34-1.17-2-2.29-2a2.12,2.12,0,0,0-2.1,1.67,19.62,19.62,0,0,0-.55,5.66,39,39,0,0,0,.43,7.08c.3,1.41,1.05,2.12,2.23,2.12Z" fill="#1b3b63"/><path d="M209.43,302.8h-1.54a2.82,2.82,0,0,1-2.82-2.82h-.14c-1.12,2.09-2.56,3.13-4.32,3.14a5,5,0,0,1-4-2.12c-1.14-1.4-1.72-4.56-1.72-9.47q0-6.54,1.3-9.43a4.53,4.53,0,0,1,4.46-2.88,3.85,3.85,0,0,1,2.39.69,8.27,8.27,0,0,1,1.87,2.21h.14v-2.56h0a4.36,4.36,0,0,1,4.36,4.36Zm-7.13-3.48c1.11,0,1.85-.67,2.21-2a29.13,29.13,0,0,0,.56-6.78,24.44,24.44,0,0,0-.5-5.91,2.09,2.09,0,0,0-2.11-1.72,2.22,2.22,0,0,0-2.22,1.6,17.86,17.86,0,0,0-.62,5.77,34.21,34.21,0,0,0,.48,7c.33,1.35,1.06,2,2.2,2Z" fill="#1b3b63"/><path d="M227.1,283a7.1,7.1,0,0,0-4.28,1.15c-.85.71-1.28,2.28-1.28,4.73v9.52a4.41,4.41,0,0,1-4.41,4.41h0V284a4.42,4.42,0,0,1,4.41-4.42h0V283h.11q1.92-3.76,5.16-3.77l.29.05Z" fill="#1b3b63"/><path d="M249.11,302.8h-4.59l-6.47-12.42h-.11v8.06a4.36,4.36,0,0,1-4.36,4.36h0V272.15a4.36,4.36,0,0,1,4.36-4.36h0v21.72h.11l5.72-9.95h4.57l-5.86,10.52Z" fill="#1b3b63"/><g style="isolation:isolate"><path d="M61.53,335.59l4.4-11.45h1.63l4.69,11.45H70.53l-1.34-3.47H64.4l-1.26,3.47Zm3.31-4.7h3.88l-1.19-3.17c-.37-1-.64-1.76-.82-2.38a14.92,14.92,0,0,1-.61,2.19Z" fill="#1e3859"/><path d="M73.46,335.59V324.14h4a9.6,9.6,0,0,1,2,.16,4,4,0,0,1,1.68.82,4.66,4.66,0,0,1,1.35,2,7.64,7.64,0,0,1,.45,2.72,8.09,8.09,0,0,1-.3,2.31,5.9,5.9,0,0,1-.78,1.67,4.13,4.13,0,0,1-1,1,4.23,4.23,0,0,1-1.36.58,7.88,7.88,0,0,1-1.84.19ZM75,334.24h2.44A6,6,0,0,0,79.2,334a2.53,2.53,0,0,0,1-.6,3.61,3.61,0,0,0,.84-1.44,7.16,7.16,0,0,0,.3-2.21,5.34,5.34,0,0,0-.59-2.76,3,3,0,0,0-1.43-1.3,6.17,6.17,0,0,0-2-.23H75Z" fill="#1e3859"/><path d="M88.29,335.59l-4.44-11.45h1.64l3,8.32c.24.66.44,1.29.6,1.87.18-.62.38-1.25.62-1.87l3.09-8.32h1.55l-4.48,11.45Z" fill="#1e3859"/><path d="M95.72,335.59V324.14H104v1.35H97.24V329h6.33v1.34H97.24v3.9h7v1.35Z" fill="#1e3859"/><path d="M106.35,335.59V324.14h1.55l6,9v-9h1.45v11.45h-1.56l-6-9v9Z" fill="#1e3859"/><path d="M120.83,335.59v-10.1h-3.77v-1.35h9.07v1.35h-3.78v10.1Z" fill="#1e3859"/><path d="M135.2,324.14h1.52v6.61a7.87,7.87,0,0,1-.39,2.75,3.39,3.39,0,0,1-1.41,1.65,5,5,0,0,1-2.68.64,5.48,5.48,0,0,1-2.63-.56,3.16,3.16,0,0,1-1.46-1.6,7.7,7.7,0,0,1-.44-2.88v-6.61h1.52v6.61a6.36,6.36,0,0,0,.28,2.2,2.1,2.1,0,0,0,1,1.09,3.35,3.35,0,0,0,1.65.38,3.12,3.12,0,0,0,2.38-.76,4.32,4.32,0,0,0,.71-2.91Z" fill="#1e3859"/><path d="M139.27,335.59V324.14h5.08a6.6,6.6,0,0,1,2.32.31,2.51,2.51,0,0,1,1.28,1.09,3.29,3.29,0,0,1,.47,1.72,2.92,2.92,0,0,1-.78,2.06,4,4,0,0,1-2.44,1.06,3.78,3.78,0,0,1,.91.57,8.21,8.21,0,0,1,1.26,1.52l2,3.12h-1.9l-1.52-2.38c-.44-.69-.81-1.22-1.09-1.58a3.94,3.94,0,0,0-.77-.77,2.58,2.58,0,0,0-.69-.3,4.29,4.29,0,0,0-.85-.06h-1.76v5.09Zm1.51-6.4H144a5,5,0,0,0,1.63-.21,1.77,1.77,0,0,0,.89-.69,1.9,1.9,0,0,0,.3-1,1.71,1.71,0,0,0-.59-1.33,2.74,2.74,0,0,0-1.86-.53h-3.63Z" fill="#1e3859"/><path d="M150.83,335.59V324.14h8.28v1.35h-6.76V329h6.33v1.34h-6.33v3.9h7v1.35Z" fill="#1e3859"/><path d="M163.78,335.59l4.39-11.45h1.64l4.68,11.45h-1.72l-1.34-3.47h-4.79l-1.25,3.47Zm3.3-4.7H171l-1.19-3.17c-.37-1-.64-1.76-.81-2.38a16.33,16.33,0,0,1-.62,2.19Z" fill="#1e3859"/><path d="M177.11,335.59l-3-11.45h1.56l1.74,7.51q.28,1.17.48,2.34c.29-1.22.47-1.93.52-2.12l2.18-7.73h1.83l1.64,5.79a30.58,30.58,0,0,1,.89,4.06c.14-.72.33-1.56.57-2.49l1.8-7.36h1.52l-3.14,11.45H184.2l-2.42-8.73c-.2-.73-.32-1.17-.36-1.34-.12.53-.23,1-.33,1.34l-2.43,8.73Z" fill="#1e3859"/><path d="M188.36,335.59l4.4-11.45h1.63l4.69,11.45h-1.73L196,332.12h-4.79L190,335.59Zm3.31-4.7h3.88l-1.2-3.17c-.36-1-.63-1.76-.81-2.38a15,15,0,0,1-.62,2.19Z" fill="#1e3859"/><path d="M200.55,335.59V324.14h1.51v11.45Z" fill="#1e3859"/><path d="M207.65,335.59v-10.1h-3.77v-1.35H213v1.35h-3.79v10.1Z" fill="#1e3859"/><path d="M214,331.91l1.43-.12a3.18,3.18,0,0,0,.48,1.41,2.61,2.61,0,0,0,1.15.89,4.49,4.49,0,0,0,1.76.34,4.27,4.27,0,0,0,1.53-.26,2.15,2.15,0,0,0,1-.71,1.66,1.66,0,0,0,.32-1,1.48,1.48,0,0,0-.31-.94,2.37,2.37,0,0,0-1-.68,20.62,20.62,0,0,0-2-.55,11,11,0,0,1-2.21-.72,3.11,3.11,0,0,1-1.23-1.07,2.67,2.67,0,0,1-.4-1.42,3,3,0,0,1,.49-1.62,3,3,0,0,1,1.44-1.15,5.46,5.46,0,0,1,2.1-.39,5.83,5.83,0,0,1,2.25.41,3.3,3.3,0,0,1,1.5,1.21,3.57,3.57,0,0,1,.56,1.8l-1.46.11a2.32,2.32,0,0,0-.79-1.64,3.07,3.07,0,0,0-2-.55,3.26,3.26,0,0,0-2,.5,1.52,1.52,0,0,0-.63,1.22,1.28,1.28,0,0,0,.45,1,5.93,5.93,0,0,0,2.28.82,15.3,15.3,0,0,1,2.54.73,3.58,3.58,0,0,1,1.48,1.17,2.89,2.89,0,0,1,.47,1.63,3.1,3.1,0,0,1-.52,1.72,3.44,3.44,0,0,1-1.51,1.26,5.21,5.21,0,0,1-2.2.45,6.63,6.63,0,0,1-2.61-.46,3.62,3.62,0,0,1-1.65-1.36A3.85,3.85,0,0,1,214,331.91Z" fill="#1e3859"/></g><path d="M59,231.7c15.48,10.9,32.2,19.46,50,24.41,2.23.57,4.44,1.27,6.71,1.71,1.14.24,2.26.55,3.41.73l3.43.57c1.15.23,2.31.28,3.47.4a33.93,33.93,0,0,0,3.49.26,54.54,54.54,0,0,0,7-.16c1.16-.11,2.34-.15,3.49-.34s2.31-.4,3.46-.62c.57-.12,1.15-.21,1.72-.34l1.69-.45c1.13-.3,2.26-.62,3.38-.95,2.21-.76,4.4-1.58,6.54-2.51l3.14-1.54a33.68,33.68,0,0,0,3.08-1.64,100.24,100.24,0,0,0,11.52-7.78c.91-.72,1.81-1.44,2.73-2.14.45-.36.92-.7,1.36-1.07l1.3-1.16c1.73-1.56,3.45-3,5.21-4.63a225.23,225.23,0,0,1,22-18.43l2.94-2.08,3-2c2-1.33,4.08-2.58,6.17-3.79a90.58,90.58,0,0,1,13.11-6.36c1.13-.46,2.31-.83,3.47-1.22s2.36-.7,3.57-1a34.15,34.15,0,0,1,7.4-1,19.33,19.33,0,0,1,7.45,1.24,10,10,0,0,1,5.51,5l-.54.26a7.81,7.81,0,0,0-2.5-2.18,11.54,11.54,0,0,0-3.08-1.18,18.76,18.76,0,0,0-6.6-.06,46.79,46.79,0,0,0-12.8,4.46c-8.21,4.12-15.86,9.48-23.32,15.07s-14.84,11.41-22,17.5c-1.8,1.5-3.76,3-5.65,4.53l-1.42,1.12c-.49.36-1,.69-1.5,1-1,.69-2,1.36-3,2A69.17,69.17,0,0,1,171,251l-1.59.87c-.54.27-1.1.51-1.65.76l-3.31,1.49a30.21,30.21,0,0,1-3.36,1.35l-3.38,1.26c-1.13.42-2.31.7-3.45,1.06s-2.28.75-3.45,1a107.62,107.62,0,0,1-14.11,2.67,91.22,91.22,0,0,1-28.89-.57,89.13,89.13,0,0,1-26.9-10.74c-1-.63-2.07-1.25-3.08-1.89l-3-2-2.94-2.1L69,242a76.25,76.25,0,0,1-10.42-9.9Z" fill="#1b3659"/></svg>