<svg width="25" height="24" viewBox="0 0 25 24" fill="none" xmlns="http://www.w3.org/2000/svg">
<path fill-rule="evenodd" clip-rule="evenodd" d="M12.0922 9.16767C11.4362 9.16767 10.4142 8.40367 9.35216 8.40367C7.94016 8.40367 6.64816 9.26667 5.92016 10.5327C4.45616 13.0747 5.54316 16.8307 6.97116 18.8967C7.67216 19.9027 8.49816 21.0347 9.59416 20.9987C10.6452 20.9537 11.0402 20.3157 12.3162 20.3157C13.5832 20.3157 13.9422 20.9987 15.0562 20.9717C16.1882 20.9537 16.9072 19.9477 17.5982 18.9327C18.3982 17.7647 18.7302 16.6327 18.7482 16.5697C18.7212 16.5607 16.5472 15.7257 16.5202 13.2097C16.5022 11.1077 18.2362 10.1017 18.3172 10.0567C17.3292 8.61067 15.8112 8.44867 15.2812 8.41267C13.8972 8.30467 12.7392 9.16767 12.0922 9.16767V9.16767Z" stroke="white" stroke-width="1.5" stroke-linecap="round" stroke-linejoin="round"/>
<path d="M14.151 2.95494C15.02 2.63142 15.5884 3.10842 15.4206 4.02036C15.2528 4.93229 14.4124 5.93382 13.5434 6.25734C12.6744 6.58087 12.106 6.10387 12.2738 5.19193C12.4416 4.28 13.282 3.27846 14.151 2.95494" stroke="white" stroke-width="1.49996" stroke-linecap="round" stroke-linejoin="round"/>
</svg>
