<svg width="24" height="25" viewBox="0 0 24 25" fill="none" xmlns="http://www.w3.org/2000/svg">
<path d="M18.3639 6.13604C21.8787 9.65076 21.8787 15.3492 18.3639 18.8639C14.8492 22.3787 9.15074 22.3787 5.63604 18.8639C2.12132 15.3492 2.12132 9.65074 5.63604 6.13604C9.15076 2.62132 14.8492 2.62132 18.3639 6.13604" stroke="white" stroke-width="1.5" stroke-linecap="round" stroke-linejoin="round"/>
<path d="M17.3069 19.757C16.9229 17.917 14.7049 16.5 11.9999 16.5C9.29487 16.5 7.07687 17.917 6.69287 19.757" stroke="white" stroke-width="1.5" stroke-linecap="round" stroke-linejoin="round"/>
<path d="M14.1213 8.37868C15.2929 9.55025 15.2929 11.4497 14.1213 12.6213C12.9497 13.7929 11.0502 13.7929 9.87868 12.6213C8.70711 11.4497 8.70711 9.55025 9.87868 8.37868C11.0502 7.20711 12.9497 7.20711 14.1213 8.37868" stroke="white" stroke-width="1.5" stroke-linecap="round" stroke-linejoin="round"/>
</svg>
